<svg xmlns="http://www.w3.org/2000/svg" xmlns:xlink="http://www.w3.org/1999/xlink" width="192" height="192"><defs><path id="b" d="M180 50.504A23.891 23.891 0 0 0 166 46c-13.255 0-24 10.745-24 24 0 5.225 1.67 10.06 4.504 14H8a8 8 0 0 1-8-8V8a8 8 0 0 1 8-8h164a8 8 0 0 1 8 8v42.504z"/><filter id="a" width="132.2%" height="169%" x="-16.1%" y="-25%" filterUnits="objectBoundingBox"><feMorphology in="SourceAlpha" operator="dilate" radius="1" result="shadowSpreadOuter1"/><feOffset dy="8" in="shadowSpreadOuter1" result="shadowOffsetOuter1"/><feMorphology in="SourceAlpha" radius="1" result="shadowInner"/><feOffset dy="8" in="shadowInner" result="shadowInner"/><feComposite in="shadowOffsetOuter1" in2="shadowInner" operator="out" result="shadowOffsetOuter1"/><feGaussianBlur in="shadowOffsetOuter1" result="shadowBlurOuter1" stdDeviation="8"/><feColorMatrix in="shadowBlurOuter1" values="0 0 0 0 0 0 0 0 0 0 0 0 0 0 0 0 0 0 0.1 0"/></filter><path id="d" d="M148.111 54a24.114 24.114 0 0 0-1.607 2H0v-2h148.111z"/><filter id="c" width="137.8%" height="2900%" x="-18.9%" y="-1000%" filterUnits="objectBoundingBox"><feOffset dy="8" in="SourceAlpha" result="shadowOffsetOuter1"/><feGaussianBlur in="shadowOffsetOuter1" result="shadowBlurOuter1" stdDeviation="8"/><feColorMatrix in="shadowBlurOuter1" values="0 0 0 0 0 0 0 0 0 0 0 0 0 0 0 0 0 0 0.1 0"/></filter><circle id="f" cx="24" cy="24" r="24"/><filter id="e" width="254.2%" height="254.2%" x="-77.1%" y="-77.1%" filterUnits="objectBoundingBox"><feMorphology in="SourceAlpha" operator="dilate" radius="1" result="shadowSpreadOuter1"/><feOffset in="shadowSpreadOuter1" result="shadowOffsetOuter1"/><feMorphology in="SourceAlpha" radius="1" result="shadowInner"/><feOffset in="shadowInner" result="shadowInner"/><feComposite in="shadowOffsetOuter1" in2="shadowInner" operator="out" result="shadowOffsetOuter1"/><feGaussianBlur in="shadowOffsetOuter1" result="shadowBlurOuter1" stdDeviation="12"/><feColorMatrix in="shadowBlurOuter1" values="0 0 0 0 0 0 0 0 0 0 0 0 0 0 0 0 0 0 0.5 0"/></filter><path id="g" d="M7.81 4h8.343a2 2 0 0 1 1.996 1.878l.83 13.591a.5.5 0 0 1-.795.433l-5.608-4.144a1 1 0 0 0-1.189 0L5.78 19.902a.5.5 0 0 1-.796-.433l.83-13.591A2 2 0 0 1 7.81 4z"/></defs><g fill="none" fill-rule="evenodd"><g stroke="#CFCFCF" stroke-width="2" transform="translate(1 1)"><path d="M179.938 103A8.001 8.001 0 0 0 172 96H8a8.001 8.001 0 0 0-7.938 7A8.079 8.079 0 0 1 0 102V8a8 8 0 0 1 8-8h164a8 8 0 0 1 8 8v94c0 .339-.021.672-.062 1z"/><path d="M22 96l38.54-54 33.94 37.878 31.394-20.347L158 96z"/><circle cx="108" cy="32" r="8"/></g><g transform="translate(1 97)"><use fill="#000" filter="url(#a)" xlink:href="#b"/><use stroke="#CFCFCF" stroke-width="2" xlink:href="#b"/></g><path fill="#CFCFCF" fill-rule="nonzero" d="M13 109h123a2 2 0 0 1 2 2v4a2 2 0 0 1-2 2H13a2 2 0 0 1-2-2v-4a2 2 0 0 1 2-2zM13 125h38a2 2 0 0 1 2 2v4a2 2 0 0 1-2 2H13a2 2 0 0 1-2-2v-4a2 2 0 0 1 2-2zM13 163h4a2 2 0 0 1 2 2v4a2 2 0 0 1-2 2h-4a2 2 0 0 1-2-2v-4a2 2 0 0 1 2-2zM29 163h36a2 2 0 0 1 2 2v4a2 2 0 0 1-2 2H29a2 2 0 0 1-2-2v-4a2 2 0 0 1 2-2z"/><g transform="translate(1 97)"><use fill="#000" filter="url(#c)" xlink:href="#d"/><use fill="#CFCFCF" xlink:href="#d"/></g><g><g fill-rule="nonzero" transform="translate(143 143)"><use fill="#000" filter="url(#e)" xlink:href="#f"/><use stroke="#000" stroke-width="2" xlink:href="#f"/></g><g transform="translate(155 155)"><path d="M0 0h24v24H0z"/><mask id="h" fill="#fff"><use xlink:href="#g"/></mask><g fill="#4D96F1" mask="url(#h)"><path d="M0 0h24v24H0z"/></g></g></g></g></svg>